<?xml version="1.0" standalone="no"?>
<!DOCTYPE svg PUBLIC "-//W3C//DTD SVG 20010904//EN"
 "http://www.w3.org/TR/2001/REC-SVG-20010904/DTD/svg10.dtd">
<svg version="1.0" xmlns="http://www.w3.org/2000/svg"
 width="100.000000pt" height="100.000000pt" viewBox="0 0 100.000000 100.000000"
 preserveAspectRatio="xMidYMid meet">
<metadata>
Created by potrace 1.14, written by Peter Selinger 2001-2017
</metadata>
<g transform="translate(0.000000,100.000000) scale(0.100000,-0.100000)"
fill="#000000" stroke="none">
<path d="M458 875 c-46 -31 -86 -98 -94 -157 l-6 -45 -45 11 c-55 12 -115 -2
-174 -41 -38 -25 -40 -29 -34 -61 13 -67 68 -134 134 -162 l30 -12 -20 -40
c-38 -74 -35 -181 7 -222 33 -34 169 7 219 66 l25 30 25 -30 c47 -56 169 -95
216 -71 23 12 43 100 35 152 -4 24 -16 58 -27 77 -12 19 -17 36 -11 38 5 1 30
16 56 32 49 32 79 72 98 132 10 34 9 39 -13 58 -53 47 -142 69 -205 51 l-32
-9 -6 46 c-8 59 -47 125 -94 157 -20 14 -39 25 -42 25 -3 0 -22 -11 -42 -25z"/>
</g>
</svg>
